# xmcd
#
# Track frame offsets:
#  150
#  10090
#  22150
#  34742
#  47822
#  60467
#  69765
#  83492
#  95280
#  106470
#  117987
#  129715
#  138720
#  150715
#  162570
#  174402
#  185177
#
# Disc length: 2584 seconds
#
# Revision: 0
# Processed by: cddbd v1.5.1PL0 Copyright (c) Steve Scherf et al.
# Submitted via: Collectorz.com_Music_Collector 6.9
#
DISCID=e50a1611
DTITLE=Tennessee Ernie Ford - Masters 1949 - 1976 [CD 1 Of 3)
DYEAR=1900
DGENRE=Country
TTITLE0=You Don´t Have To Be A Baby Cry
TTITLE1=Ain´t Nobody´s Business But My Own
TTITLE2=I Don´t Hurt Anymore
TTITLE3=I Been To Georgia On A Fast Train
TTITLE4=Ain´t Goin´Down In The Ground Before My Time
TTITLE5=Nine Pound Hammer
TTITLE6=Trouble In Mind
TTITLE7=Sixteen Tons
TTITLE8=Blackberry Boogie
TTITLE9=I Don`t Know
TTITLE10=I´ll Never Be Free
TTITLE11=It´s All In The Game
TTITLE12=Old Cape Cod
TTITLE13=Ocean Of Tears
TTITLE14=Blues Stay Away From Me
TTITLE15=Country Junction
TTITLE16=This Must Be The Place
EXTD=
EXTT0=
EXTT1=
EXTT2=
EXTT3=
EXTT4=
EXTT5=
EXTT6=
EXTT7=
EXTT8=
EXTT9=
EXTT10=
EXTT11=
EXTT12=
EXTT13=
EXTT14=
EXTT15=
EXTT16=
PLAYORDER=
